# xmcd CD database file
#
# Track frame offsets:
#	150
#	19193
#	29981
#	42189
#	57262
#	71502
#	89149
#	110532
#	127623
#	142116
#	159217
#	177210
#	190781
#	209820
#	223206
#	244440
#	261625
#	278706
#	292996
#	308435
#	325694
#
# Disc length: 4583 seconds
#
# Revision: 0
# Processed by: cddbd v1.5.2PL0 Copyright (c) Steve Scherf et al.
# Submitted via: CDex 1.51
#
DISCID=4711e515
DTITLE=Sampler - Bluesnews Collection Vol. 11
DYEAR=2016
DGENRE=Blues
TTITLE0=Roger Wade and Jan Mohr - My Back Scratcher
TTITLE1=Richie Arndt - Memphis Tennessee
TTITLE2=Stu and The Big Jump - Daddy On My Mind
TTITLE3=Wolfgang Schuster - Sincerely Blue
TTITLE4=Dust and Diesel Bluesband - Blue Mood
TTITLE5=Alexander and Maximilian Blume - The Stranger
TTITLE6=White Hot and Blue - Gloomy Mood
TTITLE7=Dan Hunter - Self Seeker
TTITLE8=The Jim Dandies - Chain Of Fools
TTITLE9=Peter Karp and Linda Krieg - Stranger
TTITLE10=Axel Merseburger - Der Brief
TTITLE11=Slinky and P'tit Loup - You're A No Good Man
TTITLE12=Blues Unlimited - Long John Billy Frets
TTITLE13=Ive and T. Bo - Down At The Crossroad
TTITLE14=Gregor Hilden - Farewell Blues
TTITLE15=Blues Bureau - V8 (Gasoline Boogie)
TTITLE16=Blues On! - Blues On!
TTITLE17=Barrel Of Blues - Bossman Blues
TTITLE18=Andreas Diehlmann and The Rhythm Kings - Hey Baby
TTITLE19=Hörbie Schmidt Band - Wir kommen aus dem Hohen Norden
TTITLE20=Soulmatic - Standing At The Borderline
EXTD=YEAR: 2016
EXTT0=
EXTT1=
EXTT2=
EXTT3=
EXTT4=
EXTT5=
EXTT6=
EXTT7=
EXTT8=
EXTT9=
EXTT10=
EXTT11=
EXTT12=
EXTT13=
EXTT14=
EXTT15=
EXTT16=
EXTT17=
EXTT18=
EXTT19=
EXTT20=
PLAYORDER=
